<?xml version="1.0" encoding="UTF-8"?>
<svg version="1.1" xmlns="http://www.w3.org/2000/svg" width="1254" height="1254">
<path d="M0 0 C413.82 0 827.64 0 1254 0 C1254 413.82 1254 827.64 1254 1254 C840.18 1254 426.36 1254 0 1254 C0 840.18 0 426.36 0 0 Z " fill="#FEFEFE" transform="translate(0,0)"/>
<path d="M0 0 C3.40537496 1.36214999 6.25284526 2.60845116 9.37890625 4.3984375 C10.20680664 4.87128174 11.03470703 5.34412598 11.88769531 5.83129883 C13.21172363 6.59543091 13.21172363 6.59543091 14.5625 7.375 C15.49288086 7.90955811 16.42326172 8.44411621 17.38183594 8.99487305 C26.09148174 14.01757291 34.71434809 19.17973681 43.31884766 24.37988281 C58.4033772 33.49488354 73.53095295 42.53037525 88.76147461 51.39916992 C91.01510323 52.71429571 93.24652069 54.06811762 95.45584106 55.45639038 C98.89935721 57.5143815 102.38145836 58.95455916 106.12535095 60.38670349 C113.40716154 63.47519347 119.89483866 66.81583878 125 73 C129.43793965 84.11897503 128.54508928 96.81756134 128.32520604 108.58974195 C128.25759026 113.29866849 128.3140953 118.0065079 128.35044861 122.71556091 C128.39121817 130.61987042 128.32799907 138.51830022 128.2043457 146.42163086 C128.06336641 155.52892466 128.09873459 164.62292926 128.22608858 173.73012406 C128.34413048 182.53253882 128.32591916 191.3299661 128.25051689 200.13267326 C128.22154119 203.8602028 128.24112064 207.58263513 128.30165291 211.30975533 C128.69368116 239.49754226 128.69368116 239.49754226 122.61758041 246.90407944 C116.94275062 251.61394983 110.73451728 254.46208828 103.83222294 256.93238926 C99.94369234 258.39817678 96.67015057 260.38537959 93.15625 262.59375 C92.04854248 263.2436792 90.94083496 263.8936084 89.79956055 264.56323242 C88.71070557 265.20236572 87.62185059 265.84149902 86.5 266.5 C74.65062405 273.45136425 62.78874419 280.38105965 50.91943359 287.29833984 C45.94548821 290.19752025 40.97280372 293.09886195 36 296 C30.05919266 299.4658722 24.11817575 302.93138085 18.17578125 306.39453125 C-1.34961148 317.77537211 -20.86421733 329.17526558 -40.3125 340.6875 C-48.69979409 345.65203522 -57.11098836 350.5743578 -65.53271484 355.48022461 C-76.7451053 362.01282535 -87.93950579 368.57600991 -99.13136292 375.14370728 C-102.33255125 377.0221991 -105.53478797 378.89887953 -108.73828125 380.7734375 C-109.41866455 381.17232178 -110.09904785 381.57120605 -110.80004883 381.98217773 C-112.08153709 382.73322901 -113.36390198 383.48278691 -114.6472168 384.23071289 C-118.94168428 386.74663633 -123.17892586 389.34534231 -127.40625 391.97265625 C-129.11933491 393.02826146 -130.8334096 394.08223613 -132.54797363 395.13543701 C-134.21797021 396.16770163 -135.87815068 397.21579297 -137.53808594 398.26416016 C-138.56192383 398.89241699 -139.58576172 399.52067383 -140.640625 400.16796875 C-142.01009277 401.02297974 -142.01009277 401.02297974 -143.40722656 401.89526367 C-146.55241491 403.23537453 -147.79499243 403.09633406 -151 402 C-153.49414062 400.77929688 -153.49414062 400.77929688 -156.15625 399.21875 C-157.16381348 398.63279053 -158.17137695 398.04683105 -159.20947266 397.44311523 C-160.29534668 396.80188721 -161.3812207 396.16065918 -162.5 395.5 C-163.65246921 394.82628326 -164.80530927 394.15320056 -165.95849609 393.48071289 C-169.0203344 391.69284526 -172.07704111 389.89638092 -175.13269043 388.09796143 C-178.19245563 386.29884669 -181.25655452 384.50714755 -184.3203125 382.71484375 C-189.20561571 379.85579255 -194.08802136 376.99185243 -198.96875 374.125 C-205.34510522 370.38022059 -211.73395471 366.65713627 -218.125 362.9375 C-233.40408269 354.03734825 -248.60011016 344.99678788 -263.796875 335.95703125 C-275.89358226 328.76722371 -288.02833132 321.65330263 -300.23071289 314.64428711 C-308.02540592 310.15953234 -315.77157696 305.5978944 -323.5 301 C-333.59699679 294.99325904 -343.74460792 289.08170841 -353.92919922 283.22485352 C-360.50438273 279.44299281 -367.06074708 275.63255031 -373.59228516 271.77587891 C-380.65802553 267.60511745 -387.74779242 263.47576063 -394.83837891 259.34741211 C-396.73603199 258.24182999 -398.61464545 257.1028951 -400.47239685 255.9315033 C-403.01830699 254.41903091 -405.44191096 253.51144592 -408.27684021 252.67105103 C-413.53987758 250.83561494 -417.7615718 248.66710926 -421 244 C-424.0607741 233.79546958 -423.0301065 222.42026056 -422.72369695 211.88898039 C-422.61695162 207.59999068 -422.60740339 203.31077342 -422.58726501 199.0206604 C-422.53455741 190.90885408 -422.39525821 182.80097254 -422.22432369 174.69088995 C-422.03387669 165.45318019 -421.94073433 156.21527634 -421.85550129 146.97609019 C-421.67810915 127.98184001 -421.37937307 108.99123616 -421 90 C-417.43574394 91.70653405 -414.60152714 93.78510212 -411.5 96.25 C-397.28388837 107.36332314 -382.22765807 117.33929364 -367 127 C-365.50904886 127.95171997 -364.01816489 128.90354517 -362.52734375 129.85546875 C-351.01340936 137.18573075 -339.3663708 144.29012227 -327.69384766 151.36425781 C-324.54372038 153.2770594 -321.40100061 155.20170347 -318.25952148 157.12866211 C-291.01223453 173.83605149 -263.46725326 190.06281894 -235.93701172 206.29833984 C-229.24968024 210.24784612 -222.59183051 214.24520435 -215.9375 218.25 C-205.59405049 224.47108361 -195.20745263 230.61530279 -184.78100586 236.69604492 C-183.57144417 237.40151683 -182.3618901 238.1070018 -181.15234375 238.8125 C-180.5578392 239.15916214 -179.96333466 239.50582428 -179.35081482 239.86299133 C-175.79421257 241.94048878 -172.25129954 244.03920648 -168.71949768 246.15858459 C-167.04035095 247.16564252 -165.35821862 248.16771699 -163.67602539 249.16967773 C-161.61143418 250.40011633 -159.55171565 251.63878112 -157.49780273 252.88696289 C-156.58071533 253.4308667 -155.66362793 253.97477051 -154.71875 254.53515625 C-153.92404297 255.013479 -153.12933594 255.49180176 -152.31054688 255.98461914 C-149.61354229 257.16983069 -147.91816669 257.34530038 -145 257 C-142.98863619 256.14554685 -142.98863619 256.14554685 -141.12890625 254.83203125 C-140.03666748 254.11998535 -140.03666748 254.11998535 -138.92236328 253.39355469 C-138.1436084 252.87180664 -137.36485352 252.35005859 -136.5625 251.8125 C-134.86520295 250.70668022 -133.1659006 249.60393364 -131.46484375 248.50390625 C-130.57522949 247.92785645 -129.68561523 247.35180664 -128.76904297 246.75830078 C-123.26789887 243.26515673 -117.62838989 240.00428386 -112.00219727 236.71801758 C-106.06182578 233.24098663 -100.18603988 229.67059586 -94.33007812 226.05322266 C-88.88303691 222.69474637 -83.40933244 219.38037506 -77.9375 216.0625 C-76.72213672 215.32500267 -75.50680546 214.58745256 -74.29150391 213.84985352 C-68.73909128 210.48020251 -63.18565284 207.11224809 -57.63102722 203.74624634 C-45.2759209 196.25877704 -32.93338908 188.75157813 -20.625 181.1875 C-19.54331543 180.52355225 -18.46163086 179.85960449 -17.34716797 179.17553711 C-11.32770181 175.48012895 -11.32770181 175.48012895 -5.4609375 171.55078125 C-3 170 -3 170 0 170 C0 113.9 0 57.8 0 0 Z " fill="#FCFDFD" transform="translate(775,574)"/>
<path d="M0 0 C2.13797916 0.93400238 4.09765142 1.97574379 6.09765625 3.17993164 C6.9278125 3.67557617 7.75796875 4.1712207 8.61328125 4.68188477 C9.96873047 5.50076172 9.96873047 5.50076172 11.3515625 6.33618164 C13.33944163 7.52435468 15.32774496 8.71181818 17.31640625 9.89868164 C18.38101074 10.53547852 19.44561523 11.17227539 20.54248047 11.82836914 C25.86331024 14.99697914 31.2092066 18.12246808 36.55496216 21.2487793 C45.68709527 26.59023545 54.80984094 31.94725767 63.9140625 37.33618164 C75.35030202 44.10424315 86.81603526 50.82168196 98.28330994 57.53695679 C102.62308065 60.07875556 106.96049202 62.62454593 111.296875 65.17211914 C122.85236153 71.95895271 134.42097749 78.71927331 146.0390625 85.39868164 C154.87174004 90.4768494 163.65754581 95.62781885 172.4140625 100.83618164 C183.42109671 107.38298381 194.49253651 113.81007356 205.59375 120.19555664 C218.30871473 127.5112288 230.96301989 134.93162385 243.6171875 142.35180664 C244.59814644 142.92700546 244.59814644 142.92700546 245.59892273 143.51382446 C248.80249447 145.39246359 252.00569743 147.27172691 255.20825195 149.15209961 C256.3823238 149.84106517 257.55639604 150.53003005 258.73046875 151.21899414 C259.75599854 151.82114746 260.78152832 152.42330078 261.83813477 153.04370117 C265.1853491 154.99427246 268.55041055 156.91409481 271.9140625 158.83618164 C271.9140625 207.01618164 271.9140625 255.19618164 271.9140625 304.83618164 C265.94187379 301.51829902 260.19242798 298.15882927 254.4765625 294.46118164 C244.48735703 288.07177186 234.22601173 282.18762718 223.9375 276.29711914 C219.35623557 273.67300923 214.80358367 271.010781 210.2890625 268.27368164 C203.91100982 264.41481415 197.48099634 260.64987655 191.0390625 256.89868164 C189.99387451 256.29000244 188.94868652 255.68132324 187.87182617 255.05419922 C185.81933843 253.85896382 183.76684826 252.66373259 181.71435547 251.46850586 C172.96491157 246.3683505 164.24374171 241.22059267 155.53515625 236.05102539 C153.20317706 234.66682308 150.87113479 233.28272709 148.5390625 231.89868164 C147.95250885 231.55050385 147.3659552 231.20232605 146.7616272 230.84359741 C139.62852762 226.61071105 132.47947481 222.40858025 125.2890625 218.27368164 C118.08921265 214.1325762 110.96400096 209.87550042 103.8515625 205.58618164 C93.95155432 199.61701416 83.97254252 193.79879905 73.94750977 188.04248047 C67.78921296 184.50378206 61.66308389 180.92422303 55.58886719 177.2434082 C48.93778333 173.22311517 42.20971698 169.33458445 35.48266602 165.44311523 C29.93685401 162.22397697 24.43780607 158.94521814 18.98828125 155.56665039 C17.84634813 154.86343359 16.70425996 154.1604685 15.56201172 153.45776367 C13.3750555 152.10768398 11.19536284 150.74575098 9.02392578 149.37084961 C8.03505371 148.76257324 7.04618164 148.15429688 6.02734375 147.52758789 C5.15891846 146.98303955 4.29049316 146.43849121 3.39575195 145.87744141 C0.29766269 144.57755447 -0.92704387 144.75217664 -4.0859375 145.83618164 C-6.14344885 146.88455508 -8.16023121 148.01445833 -10.14453125 149.19555664 C-10.72107956 149.53597488 -11.29762787 149.87639313 -11.89164734 150.22712708 C-13.77299405 151.3400849 -15.64815122 152.46304778 -17.5234375 153.58618164 C-18.83862747 154.36672674 -20.1542244 155.1465865 -21.47021484 155.92578125 C-24.11470163 157.49294087 -26.75687322 159.06388851 -29.39697266 160.63842773 C-33.46013566 163.06107219 -37.53459502 165.46433701 -41.61035156 167.86572266 C-46.10616938 170.51585785 -50.59582326 173.17639816 -55.0859375 175.83618164 C-56.1186377 176.4478418 -57.15133789 177.05950195 -58.21533203 177.68969727 C-64.450155 181.38289498 -70.68417401 185.0774472 -76.91773987 188.77276611 C-81.93560466 191.74731614 -86.95433941 194.72039631 -91.97314453 197.69335938 C-95.85933768 199.99580951 -99.74488697 202.29934472 -103.63034058 204.6030426 C-107.57810349 206.9433404 -111.52736175 209.28110075 -115.47715759 211.6179657 C-118.40290148 213.34939321 -121.32782084 215.08221041 -124.25259399 216.8152771 C-125.6688935 217.65409944 -127.08553302 218.492348 -128.50253296 219.32998657 C-130.48567027 220.50239976 -132.46756921 221.67688101 -134.44921875 222.85180664 C-135.03244904 223.19594101 -135.61567932 223.54007538 -136.21658325 223.89463806 C-137.84703262 224.86291276 -139.46668834 225.84929097 -141.0859375 226.83618164 C-142.12607058 227.39638378 -143.16620365 227.95658592 -144.23785591 228.53376389 C-147.35259846 230.5759673 -147.35259846 230.5759673 -147.83984184 233.92085648 C-147.84260722 235.75153734 -147.84260722 235.75153734 -147.84542847 237.61920166 C-147.85463857 238.30048905 -147.86384867 238.98177644 -147.87333786 239.68370891 C-147.89692938 241.96611262 -147.87780935 244.24614677 -147.85888672 246.52856445 C-147.86705676 248.16461648 -147.87785874 249.80065717 -147.89109802 251.43667603 C-147.91957326 255.8786804 -147.91116953 260.31994468 -147.89623022 264.76198673 C-147.88686189 269.40388323 -147.91129001 274.04559767 -147.93215942 278.68743896 C-147.96653092 287.47761759 -147.97043248 296.26753617 -147.96343434 305.05776858 C-147.95694734 315.06500526 -147.98435614 325.07205882 -148.01463675 335.07924128 C-148.076166 355.66490827 -148.09504886 376.2504327 -148.0859375 396.83618164 C-152.3486419 395.19017344 -156.17653821 393.12152532 -160.0859375 390.77368164 C-161.60519743 389.87088115 -163.12475191 388.96857624 -164.64453125 388.06665039 C-165.49772949 387.55924316 -166.35092773 387.05183594 -167.22998047 386.52905273 C-172.23478809 383.56244852 -177.25597867 380.62374773 -182.27603149 377.68304443 C-184.16296736 376.57766999 -186.04964452 375.47185504 -187.9362793 374.3659668 C-197.69987959 368.64370906 -207.47215284 362.93640755 -217.25 357.23852539 C-221.22593051 354.92157295 -225.19967859 352.6009361 -229.171875 350.27758789 C-239.84988589 344.03504534 -250.54225789 337.82316343 -261.31323242 331.74194336 C-262.11736572 331.28577637 -262.92149902 330.82960938 -263.75 330.35961914 C-264.44561035 329.96693848 -265.1412207 329.57425781 -265.85791016 329.16967773 C-266.59315918 328.72962402 -267.3284082 328.28957031 -268.0859375 327.83618164 C-269.10700907 327.28779507 -270.12808064 326.73940849 -271.18009377 326.17440414 C-274.0859375 323.83618164 -274.0859375 323.83618164 -274.82422447 320.76712418 C-274.81869371 319.55404461 -274.81316296 318.34096504 -274.8074646 317.09112549 C-274.81259115 316.41392165 -274.8177177 315.73671781 -274.8229996 315.03899264 C-274.83288171 312.77022382 -274.79989353 310.50411896 -274.76708984 308.2355957 C-274.76539736 306.60941124 -274.76634747 304.9832222 -274.76974487 303.35704041 C-274.77146799 298.94172783 -274.73616759 294.52739118 -274.69430113 290.11230564 C-274.65681938 285.49856564 -274.6532708 280.88480381 -274.64614868 276.27093506 C-274.62749226 267.5337331 -274.5782446 258.79698104 -274.51805174 250.05997729 C-274.45101126 240.11334174 -274.41800382 230.16668482 -274.38787913 220.21987963 C-274.32514616 199.75839576 -274.21959575 179.29731703 -274.0859375 158.83618164 C-272.45853134 157.92228668 -272.45853134 157.92228668 -270.79824829 156.9899292 C-269.35328173 156.1779558 -267.90832583 155.36596342 -266.46337891 154.55395508 C-265.75085464 154.15389252 -265.03833038 153.75382996 -264.30421448 153.34164429 C-258.32310873 149.97967073 -252.38154997 146.55361554 -246.4609375 143.08618164 C-245.44515625 142.49256836 -244.429375 141.89895508 -243.3828125 141.28735352 C-235.69835124 136.79203902 -228.03289746 132.2649279 -220.37207031 127.72949219 C-210.64675086 121.97583743 -200.88312628 116.28832162 -191.11816406 110.60229492 C-186.10587937 107.68290141 -181.09602434 104.75934478 -176.0859375 101.83618164 C-174.08594931 100.66949473 -172.0859493 99.50282807 -170.0859375 98.33618164 C-169.0959375 97.75868164 -168.1059375 97.18118164 -167.0859375 96.58618164 C-158.0859375 91.33618164 -158.0859375 91.33618164 -155.08618164 89.58642578 C-153.08524977 88.41914768 -151.08443604 87.25166704 -149.08374023 86.08398438 C-144.09894449 83.17500434 -139.11217724 80.26951823 -134.12109375 77.37133789 C-123.93896318 71.45383884 -113.79633826 65.47975916 -103.7109375 59.39868164 C-94.1928023 53.66095126 -84.60076829 48.06606424 -74.96191406 42.53393555 C-65.95499777 37.35731475 -57.01396476 32.07474376 -48.08422852 26.76635742 C-37.71749828 20.60684281 -27.32150004 14.49669077 -16.87548828 8.47241211 C-14.85831061 7.28922247 -12.85866866 6.07596454 -10.87060547 4.84448242 C-9.80600098 4.19334473 -8.74139648 3.54220703 -7.64453125 2.87133789 C-6.67700928 2.26813721 -5.7094873 1.66493652 -4.71264648 1.04345703 C-2.0859375 -0.16381836 -2.0859375 -0.16381836 0 0 Z " fill="#FCFDFD" transform="translate(628.0859375,276.163818359375)"/>
<path d="M0 0 C3.40537496 1.36214999 6.25284526 2.60845116 9.37890625 4.3984375 C10.20680664 4.87128174 11.03470703 5.34412598 11.88769531 5.83129883 C13.21172363 6.59543091 13.21172363 6.59543091 14.5625 7.375 C15.49288086 7.90955811 16.42326172 8.44411621 17.38183594 8.99487305 C26.09148174 14.01757291 34.71434809 19.17973681 43.31884766 24.37988281 C58.4033772 33.49488354 73.53095295 42.53037525 88.76147461 51.39916992 C91.01510323 52.71429571 93.24652069 54.06811762 95.45584106 55.45639038 C98.89935721 57.5143815 102.38145836 58.95455916 106.12535095 60.38670349 C113.40716154 63.47519347 119.89483866 66.81583878 125 73 C129.43793965 84.11897503 128.54508928 96.81756134 128.32520604 108.58974195 C128.25759026 113.29866849 128.3140953 118.0065079 128.35044861 122.71556091 C128.39121817 130.61987042 128.32799907 138.51830022 128.2043457 146.42163086 C128.06336641 155.52892466 128.09873459 164.62292926 128.22608858 173.73012406 C128.34413048 182.53253882 128.32591916 191.3299661 128.25051689 200.13267326 C128.22154119 203.8602028 128.24112064 207.58263513 128.30165291 211.30975533 C128.69368116 239.49754226 128.69368116 239.49754226 122.61758041 246.90407944 C116.94275062 251.61394983 110.73451728 254.46208828 103.83222294 256.93238926 C99.94369234 258.39817678 96.67015057 260.38537959 93.15625 262.59375 C92.04854248 263.2436792 90.94083496 263.8936084 89.79956055 264.56323242 C88.71070557 265.20236572 87.62185059 265.84149902 86.5 266.5 C74.65062405 273.45136425 62.78874419 280.38105965 50.91943359 287.29833984 C45.94548821 290.19752025 40.97280372 293.09886195 36 296 C30.05919266 299.4658722 24.11817575 302.93138085 18.17578125 306.39453125 C-1.34961148 317.77537211 -20.86421733 329.17526558 -40.3125 340.6875 C-48.69979409 345.65203522 -57.11098836 350.5743578 -65.53271484 355.48022461 C-76.7451053 362.01282535 -87.93950579 368.57600991 -99.13136292 375.14370728 C-102.33255125 377.0221991 -105.53478797 378.89887953 -108.73828125 380.7734375 C-109.41866455 381.17232178 -110.09904785 381.57120605 -110.80004883 381.98217773 C-112.08153709 382.73322901 -113.36390198 383.48278691 -114.6472168 384.23071289 C-118.94168428 386.74663633 -123.17892586 389.34534231 -127.40625 391.97265625 C-129.11933491 393.02826146 -130.8334096 394.08223613 -132.54797363 395.13543701 C-134.21797021 396.16770163 -135.87815068 397.21579297 -137.53808594 398.26416016 C-138.56192383 398.89241699 -139.58576172 399.52067383 -140.640625 400.16796875 C-142.01009277 401.02297974 -142.01009277 401.02297974 -143.40722656 401.89526367 C-146.55241491 403.23537453 -147.79499243 403.09633406 -151 402 C-153.49414062 400.77929688 -153.49414062 400.77929688 -156.15625 399.21875 C-157.16381348 398.63279053 -158.17137695 398.04683105 -159.20947266 397.44311523 C-160.29534668 396.80188721 -161.3812207 396.16065918 -162.5 395.5 C-163.65246921 394.82628326 -164.80530927 394.15320056 -165.95849609 393.48071289 C-169.0203344 391.69284526 -172.07704111 389.89638092 -175.13269043 388.09796143 C-178.19245563 386.29884669 -181.25655452 384.50714755 -184.3203125 382.71484375 C-189.20561571 379.85579255 -194.08802136 376.99185243 -198.96875 374.125 C-205.34510522 370.38022059 -211.73395471 366.65713627 -218.125 362.9375 C-233.40408269 354.03734825 -248.60011016 344.99678788 -263.796875 335.95703125 C-275.89358226 328.76722371 -288.02833132 321.65330263 -300.23071289 314.64428711 C-308.02540592 310.15953234 -315.77157696 305.5978944 -323.5 301 C-333.59699679 294.99325904 -343.74460792 289.08170841 -353.92919922 283.22485352 C-360.50438273 279.44299281 -367.06074708 275.63255031 -373.59228516 271.77587891 C-380.65802553 267.60511745 -387.74779242 263.47576063 -394.83837891 259.34741211 C-396.73603199 258.24182999 -398.61464545 257.1028951 -400.47239685 255.9315033 C-403.01830699 254.41903091 -405.44191096 253.51144592 -408.27684021 252.67105103 C-413.53987758 250.83561494 -417.7615718 248.66710926 -421 244 C-424.0607741 233.79546958 -423.0301065 222.42026056 -422.72369695 211.88898039 C-422.61695162 207.59999068 -422.60740339 203.31077342 -422.58726501 199.0206604 C-422.53455741 190.90885408 -422.39525821 182.80097254 -422.22432369 174.69088995 C-422.03387669 165.45318019 -421.94073433 156.21527634 -421.85550129 146.97609019 C-421.67810915 127.98184001 -421.37937307 108.99123616 -421 90 C-417.43574394 91.70653405 -414.60152714 93.78510212 -411.5 96.25 C-397.28388837 107.36332314 -382.22765807 117.33929364 -367 127 C-365.50904886 127.95171997 -364.01816489 128.90354517 -362.52734375 129.85546875 C-351.01340936 137.18573075 -339.3663708 144.29012227 -327.69384766 151.36425781 C-324.54372038 153.2770594 -321.40100061 155.20170347 -318.25952148 157.12866211 C-291.01223453 173.83605149 -263.46725326 190.06281894 -235.93701172 206.29833984 C-229.24968024 210.24784612 -222.59183051 214.24520435 -215.9375 218.25 C-205.59405049 224.47108361 -195.20745263 230.61530279 -184.78100586 236.69604492 C-183.57144417 237.40151683 -182.3618901 238.1070018 -181.15234375 238.8125 C-180.5578392 239.15916214 -179.96333466 239.50582428 -179.35081482 239.86299133 C-175.79421257 241.94048878 -172.25129954 244.03920648 -168.71949768 246.15858459 C-167.04035095 247.16564252 -165.35821862 248.16771699 -163.67602539 249.16967773 C-161.61143418 250.40011633 -159.55171565 251.63878112 -157.49780273 252.88696289 C-156.58071533 253.4308667 -155.66362793 253.97477051 -154.71875 254.53515625 C-153.92404297 255.013479 -153.12933594 255.49180176 -152.31054688 255.98461914 C-149.61354229 257.16983069 -147.91816669 257.34530038 -145 257 C-142.98863619 256.14554685 -142.98863619 256.14554685 -141.12890625 254.83203125 C-140.03666748 254.11998535 -140.03666748 254.11998535 -138.92236328 253.39355469 C-138.1436084 252.87180664 -137.36485352 252.35005859 -136.5625 251.8125 C-134.86520295 250.70668022 -133.1659006 249.60393364 -131.46484375 248.50390625 C-130.57522949 247.92785645 -129.68561523 247.35180664 -128.76904297 246.75830078 C-123.26789887 243.26515673 -117.62838989 240.00428386 -112.00219727 236.71801758 C-106.06182578 233.24098663 -100.18603988 229.67059586 -94.33007812 226.05322266 C-88.88303691 222.69474637 -83.40933244 219.38037506 -77.9375 216.0625 C-76.72213672 215.32500267 -75.50680546 214.58745256 -74.29150391 213.84985352 C-68.73909128 210.48020251 -63.18565284 207.11224809 -57.63102722 203.74624634 C-45.2759209 196.25877704 -32.93338908 188.75157813 -20.625 181.1875 C-19.54331543 180.52355225 -18.46163086 179.85960449 -17.34716797 179.17553711 C-11.32770181 175.48012895 -11.32770181 175.48012895 -5.4609375 171.55078125 C-3 170 -3 170 0 170 C0 113.9 0 57.8 0 0 Z M22 38 C22.02130588 39.10296181 22.02130588 39.10296181 22.04304218 40.22820568 C22.38225187 58.16626941 22.60397222 76.10232327 22.69690418 94.04339886 C22.74464676 102.72026264 22.83130761 111.39339545 23.01147461 120.06860352 C23.16851991 127.63533349 23.25062697 135.19865109 23.24489135 142.76707107 C23.24441856 146.77202511 23.27998156 150.76895017 23.40552711 154.77210045 C24.13006483 179.01308302 24.13006483 179.01308302 18.98354721 185.56845474 C14.09847175 189.82484419 8.69245052 192.46211399 2.71054363 194.84473038 C-1.64698454 196.70196664 -5.56859583 199.22285861 -9.5625 201.75 C-11.2222746 202.7428258 -12.88234327 203.73516056 -14.54296875 204.7265625 C-20.8390754 208.49513716 -27.10609301 212.31144462 -33.375 216.125 C-43.22920229 222.11832148 -53.10522963 228.07390812 -63 234 C-73.37365885 240.21292561 -83.72443118 246.46192284 -94.05432129 252.74734497 C-103.46542145 258.47330985 -112.89913795 264.16050522 -122.36743164 269.79150391 C-126.94730621 272.52403724 -131.48766999 275.28610609 -135.9375 278.2265625 C-136.67581055 278.7100415 -137.41412109 279.19352051 -138.17480469 279.69165039 C-139.50918217 280.57312445 -140.83379197 281.46966558 -142.14550781 282.38452148 C-143.890625 283.53515625 -143.890625 283.53515625 -147 285 C-149.546875 284.46875 -149.546875 284.46875 -152 283 C-153.36125 282.22462891 -153.36125 282.22462891 -154.75 281.43359375 C-155.8225 280.77488281 -156.895 280.11617187 -158 279.4375 C-164.95333405 275.20386734 -171.96749907 271.07801092 -178.99682617 266.97219849 C-189.8924224 260.60716906 -200.74345228 254.17490737 -211.55102539 247.66113281 C-219.4346768 242.9180926 -227.36635309 238.26209044 -235.3125 233.625 C-245.63345285 227.6017104 -255.87667373 221.46296606 -266.07583618 215.23590088 C-273.9993398 210.40022614 -281.96670297 205.65131376 -290 201 C-302.32315218 193.8609355 -314.48710214 186.46957156 -326.64160156 179.04882812 C-329.80811698 177.11706036 -332.97753941 175.19018827 -336.1484375 173.265625 C-345.32943384 167.69180408 -354.49414199 162.09313626 -363.625 156.4375 C-364.47102783 155.91349609 -365.31705566 155.38949219 -366.1887207 154.84960938 C-370.75573002 152.01824644 -375.31729541 149.17834775 -379.875 146.33203125 C-380.83712402 145.73269775 -381.79924805 145.13336426 -382.79052734 144.51586914 C-384.6414569 143.36274481 -386.49081507 142.20709328 -388.33837891 141.04858398 C-389.58240479 140.27430054 -389.58240479 140.27430054 -390.8515625 139.484375 C-391.58197754 139.02772461 -392.31239258 138.57107422 -393.06494141 138.10058594 C-395.10614469 136.85676198 -395.10614469 136.85676198 -398 136 C-398.20859145 148.15212047 -398.36847543 160.30381474 -398.46630955 172.45736122 C-398.51326769 178.10096112 -398.57694922 183.7433358 -398.67895508 189.38623047 C-398.77679539 194.83281852 -398.83056798 200.27822887 -398.85389519 205.7256279 C-398.87051661 207.80300822 -398.90297672 209.8803245 -398.95157051 211.95720291 C-399.72126507 222.80505101 -399.72126507 222.80505101 -396.09922791 232.54229736 C-393.75187309 234.13994598 -391.67087444 235.06738352 -389 236 C-387.44201408 236.88018265 -385.89687245 237.78384842 -384.37109375 238.71875 C-382.72820346 239.64873819 -381.08359339 240.57569319 -379.4375 241.5 C-377.57758533 242.55373551 -375.7182321 243.60846249 -373.859375 244.6640625 C-372.41788086 245.48245605 -372.41788086 245.48245605 -370.94726562 246.31738281 C-366.00821064 249.13712825 -361.09743205 252.00492955 -356.1875 254.875 C-355.18348145 255.46176514 -354.17946289 256.04853027 -353.14501953 256.65307617 C-351.10533291 257.84547079 -349.06578214 259.03809782 -347.02636719 260.23095703 C-344.07356784 261.95699641 -341.11917477 263.68026773 -338.1640625 265.40234375 C-327.79061891 271.4474437 -317.42576079 277.50688479 -307.07034302 283.58279419 C-294.60805159 290.89469732 -282.12264268 298.16493406 -269.60449219 305.38085938 C-258.10987254 312.00797607 -246.69395054 318.74630837 -235.33837891 325.60839844 C-222.48182579 333.37190294 -209.56986762 341.02060377 -196.54638672 348.50097656 C-189.44284718 352.58312536 -182.36531668 356.70583518 -175.3125 360.875 C-174.41378174 361.40383789 -173.51506348 361.93267578 -172.58911133 362.47753906 C-168.52500565 364.87657148 -164.49008565 367.30470735 -160.51171875 369.84375 C-159.82746826 370.27445801 -159.14321777 370.70516602 -158.43823242 371.14892578 C-157.19595146 371.93475964 -155.96206477 372.73412081 -154.73950195 373.55029297 C-151.99540709 375.27710656 -150.39066229 376.03227081 -147.12133789 375.76220703 C-143.91907877 374.98023965 -141.75663565 373.9480972 -138.96484375 372.21875 C-138.00513672 371.63246826 -137.04542969 371.04618652 -136.05664062 370.44213867 C-135.02732422 369.80123291 -133.99800781 369.16032715 -132.9375 368.5 C-131.27534395 367.48337381 -129.61315587 366.46679771 -127.94961548 365.45243835 C-126.78214841 364.74048779 -125.61530926 364.02750664 -124.44906616 363.31355286 C-117.68664807 359.17960864 -110.84433593 355.18377488 -104 351.1875 C-102.74805372 350.45528692 -101.49618146 349.72294728 -100.24438477 348.99047852 C-97.8731854 347.60316232 -95.5016862 346.2163614 -93.12988281 344.83007812 C-89.20875886 342.5373523 -85.29040298 340.23998038 -81.375 337.9375 C-80.73876709 337.56351074 -80.10253418 337.18952148 -79.44702148 336.80419922 C-75.25384588 334.33593072 -71.06905623 331.85377608 -66.88671875 329.3671875 C-53.41832475 321.36258142 -39.90180905 313.4526001 -26.3203125 305.640625 C-10.70677995 296.65723513 4.81994464 287.52355021 20.35791016 278.41030884 C34.57350302 270.07269506 48.80910155 261.76953353 63.05078125 253.4765625 C64.06809326 252.88383545 65.08540527 252.2911084 66.13354492 251.68041992 C68.00706221 250.58884725 69.88087578 249.49778279 71.75512695 248.4074707 C73.58449154 247.34146199 75.39518615 246.24289612 77.18786621 245.11628723 C80.14341713 243.35884663 83.15036023 242.14659813 86.36100769 240.9234314 C92.73188128 238.23874989 98.47580701 235.3525894 103 230 C106.79361541 220.64499999 105.9336625 209.7953216 105.658777 199.86754203 C105.56880809 195.89159363 105.59486953 191.91612904 105.60456848 187.93940735 C105.60342198 181.26899678 105.51625925 174.6041092 105.3737793 167.93530273 C105.21015086 160.24040829 105.17011895 152.55260233 105.1987049 144.8561818 C105.22458629 137.4254934 105.17634306 129.99720858 105.09005165 122.56702614 C105.05395943 119.41658328 105.04113248 116.26733988 105.0469265 113.11670494 C105.04944951 109.40462533 104.98606478 105.69915184 104.87285423 101.98885536 C104.82654722 99.98956304 104.84307898 97.98912034 104.86184692 95.98937988 C104.70701185 92.23621104 104.44633454 89.47228792 103 86 C98.99906278 82.44693354 94.84868004 80.28189693 90 78 C88.65536041 77.22677802 87.31703155 76.4419568 85.99609375 75.62890625 C84.81037542 74.93927892 83.6241673 74.25049312 82.4375 73.5625 C76.98651977 70.38119572 71.57117516 67.14436297 66.1796875 63.86328125 C65.27383659 63.31206352 65.27383659 63.31206352 64.34968567 62.74971008 C61.33912004 60.91654647 58.33050672 59.08024912 55.32397461 57.24047852 C48.30353598 52.95329378 41.22354753 48.80051612 34.06518555 44.74853516 C32.09640255 43.62544285 30.1462579 42.46865264 28.22192383 41.27099609 C26.13728683 39.83449027 26.13728683 39.83449027 24 40 C24 39.34 24 38.68 24 38 C23.34 38 22.68 38 22 38 Z " fill="#04A66C" transform="translate(775,574)"/>
<path d="M0 0 C2.13797916 0.93400238 4.09765142 1.97574379 6.09765625 3.17993164 C6.9278125 3.67557617 7.75796875 4.1712207 8.61328125 4.68188477 C9.96873047 5.50076172 9.96873047 5.50076172 11.3515625 6.33618164 C13.33944163 7.52435468 15.32774496 8.71181818 17.31640625 9.89868164 C18.38101074 10.53547852 19.44561523 11.17227539 20.54248047 11.82836914 C25.86331024 14.99697914 31.2092066 18.12246808 36.55496216 21.2487793 C45.68709527 26.59023545 54.80984094 31.94725767 63.9140625 37.33618164 C75.35030202 44.10424315 86.81603526 50.82168196 98.28330994 57.53695679 C102.62308065 60.07875556 106.96049202 62.62454593 111.296875 65.17211914 C122.85236153 71.95895271 134.42097749 78.71927331 146.0390625 85.39868164 C154.87174004 90.4768494 163.65754581 95.62781885 172.4140625 100.83618164 C183.42109671 107.38298381 194.49253651 113.81007356 205.59375 120.19555664 C218.30871473 127.5112288 230.96301989 134.93162385 243.6171875 142.35180664 C244.59814644 142.92700546 244.59814644 142.92700546 245.59892273 143.51382446 C248.80249447 145.39246359 252.00569743 147.27172691 255.20825195 149.15209961 C256.3823238 149.84106517 257.55639604 150.53003005 258.73046875 151.21899414 C259.75599854 151.82114746 260.78152832 152.42330078 261.83813477 153.04370117 C265.1853491 154.99427246 268.55041055 156.91409481 271.9140625 158.83618164 C271.9140625 207.01618164 271.9140625 255.19618164 271.9140625 304.83618164 C265.94187379 301.51829902 260.19242798 298.15882927 254.4765625 294.46118164 C244.48735703 288.07177186 234.22601173 282.18762718 223.9375 276.29711914 C219.35623557 273.67300923 214.80358367 271.010781 210.2890625 268.27368164 C203.91100982 264.41481415 197.48099634 260.64987655 191.0390625 256.89868164 C189.99387451 256.29000244 188.94868652 255.68132324 187.87182617 255.05419922 C185.81933843 253.85896382 183.76684826 252.66373259 181.71435547 251.46850586 C172.96491157 246.3683505 164.24374171 241.22059267 155.53515625 236.05102539 C153.20317706 234.66682308 150.87113479 233.28272709 148.5390625 231.89868164 C147.95250885 231.55050385 147.3659552 231.20232605 146.7616272 230.84359741 C139.62852762 226.61071105 132.47947481 222.40858025 125.2890625 218.27368164 C118.08921265 214.1325762 110.96400096 209.87550042 103.8515625 205.58618164 C93.95155432 199.61701416 83.97254252 193.79879905 73.94750977 188.04248047 C67.78921296 184.50378206 61.66308389 180.92422303 55.58886719 177.2434082 C48.93778333 173.22311517 42.20971698 169.33458445 35.48266602 165.44311523 C29.93685401 162.22397697 24.43780607 158.94521814 18.98828125 155.56665039 C17.84634813 154.86343359 16.70425996 154.1604685 15.56201172 153.45776367 C13.3750555 152.10768398 11.19536284 150.74575098 9.02392578 149.37084961 C8.03505371 148.76257324 7.04618164 148.15429688 6.02734375 147.52758789 C5.15891846 146.98303955 4.29049316 146.43849121 3.39575195 145.87744141 C0.29766269 144.57755447 -0.92704387 144.75217664 -4.0859375 145.83618164 C-6.14344885 146.88455508 -8.16023121 148.01445833 -10.14453125 149.19555664 C-10.72107956 149.53597488 -11.29762787 149.87639313 -11.89164734 150.22712708 C-13.77299405 151.3400849 -15.64815122 152.46304778 -17.5234375 153.58618164 C-18.83862747 154.36672674 -20.1542244 155.1465865 -21.47021484 155.92578125 C-24.11470163 157.49294087 -26.75687322 159.06388851 -29.39697266 160.63842773 C-33.46013566 163.06107219 -37.53459502 165.46433701 -41.61035156 167.86572266 C-46.10616938 170.51585785 -50.59582326 173.17639816 -55.0859375 175.83618164 C-56.1186377 176.4478418 -57.15133789 177.05950195 -58.21533203 177.68969727 C-64.450155 181.38289498 -70.68417401 185.0774472 -76.91773987 188.77276611 C-81.93560466 191.74731614 -86.95433941 194.72039631 -91.97314453 197.69335938 C-95.85933768 199.99580951 -99.74488697 202.29934472 -103.63034058 204.6030426 C-107.57810349 206.9433404 -111.52736175 209.28110075 -115.47715759 211.6179657 C-118.40290148 213.34939321 -121.32782084 215.08221041 -124.25259399 216.8152771 C-125.6688935 217.65409944 -127.08553302 218.492348 -128.50253296 219.32998657 C-130.48567027 220.50239976 -132.46756921 221.67688101 -134.44921875 222.85180664 C-135.03244904 223.19594101 -135.61567932 223.54007538 -136.21658325 223.89463806 C-137.84703262 224.86291276 -139.46668834 225.84929097 -141.0859375 226.83618164 C-142.12607058 227.39638378 -143.16620365 227.95658592 -144.23785591 228.53376389 C-147.35259846 230.5759673 -147.35259846 230.5759673 -147.83984184 233.92085648 C-147.84260722 235.75153734 -147.84260722 235.75153734 -147.84542847 237.61920166 C-147.85463857 238.30048905 -147.86384867 238.98177644 -147.87333786 239.68370891 C-147.89692938 241.96611262 -147.87780935 244.24614677 -147.85888672 246.52856445 C-147.86705676 248.16461648 -147.87785874 249.80065717 -147.89109802 251.43667603 C-147.91957326 255.8786804 -147.91116953 260.31994468 -147.89623022 264.76198673 C-147.88686189 269.40388323 -147.91129001 274.04559767 -147.93215942 278.68743896 C-147.96653092 287.47761759 -147.97043248 296.26753617 -147.96343434 305.05776858 C-147.95694734 315.06500526 -147.98435614 325.07205882 -148.01463675 335.07924128 C-148.076166 355.66490827 -148.09504886 376.2504327 -148.0859375 396.83618164 C-152.3486419 395.19017344 -156.17653821 393.12152532 -160.0859375 390.77368164 C-161.60519743 389.87088115 -163.12475191 388.96857624 -164.64453125 388.06665039 C-165.49772949 387.55924316 -166.35092773 387.05183594 -167.22998047 386.52905273 C-172.23478809 383.56244852 -177.25597867 380.62374773 -182.27603149 377.68304443 C-184.16296736 376.57766999 -186.04964452 375.47185504 -187.9362793 374.3659668 C-197.69987959 368.64370906 -207.47215284 362.93640755 -217.25 357.23852539 C-221.22593051 354.92157295 -225.19967859 352.6009361 -229.171875 350.27758789 C-239.84988589 344.03504534 -250.54225789 337.82316343 -261.31323242 331.74194336 C-262.11736572 331.28577637 -262.92149902 330.82960938 -263.75 330.35961914 C-264.44561035 329.96693848 -265.1412207 329.57425781 -265.85791016 329.16967773 C-266.59315918 328.72962402 -267.3284082 328.28957031 -268.0859375 327.83618164 C-269.10700907 327.28779507 -270.12808064 326.73940849 -271.18009377 326.17440414 C-274.0859375 323.83618164 -274.0859375 323.83618164 -274.82422447 320.76712418 C-274.81869371 319.55404461 -274.81316296 318.34096504 -274.8074646 317.09112549 C-274.81259115 316.41392165 -274.8177177 315.73671781 -274.8229996 315.03899264 C-274.83288171 312.77022382 -274.79989353 310.50411896 -274.76708984 308.2355957 C-274.76539736 306.60941124 -274.76634747 304.9832222 -274.76974487 303.35704041 C-274.77146799 298.94172783 -274.73616759 294.52739118 -274.69430113 290.11230564 C-274.65681938 285.49856564 -274.6532708 280.88480381 -274.64614868 276.27093506 C-274.62749226 267.5337331 -274.5782446 258.79698104 -274.51805174 250.05997729 C-274.45101126 240.11334174 -274.41800382 230.16668482 -274.38787913 220.21987963 C-274.32514616 199.75839576 -274.21959575 179.29731703 -274.0859375 158.83618164 C-272.45853134 157.92228668 -272.45853134 157.92228668 -270.79824829 156.9899292 C-269.35328173 156.1779558 -267.90832583 155.36596342 -266.46337891 154.55395508 C-265.75085464 154.15389252 -265.03833038 153.75382996 -264.30421448 153.34164429 C-258.32310873 149.97967073 -252.38154997 146.55361554 -246.4609375 143.08618164 C-245.44515625 142.49256836 -244.429375 141.89895508 -243.3828125 141.28735352 C-235.69835124 136.79203902 -228.03289746 132.2649279 -220.37207031 127.72949219 C-210.64675086 121.97583743 -200.88312628 116.28832162 -191.11816406 110.60229492 C-186.10587937 107.68290141 -181.09602434 104.75934478 -176.0859375 101.83618164 C-174.08594931 100.66949473 -172.0859493 99.50282807 -170.0859375 98.33618164 C-169.0959375 97.75868164 -168.1059375 97.18118164 -167.0859375 96.58618164 C-158.0859375 91.33618164 -158.0859375 91.33618164 -155.08618164 89.58642578 C-153.08524977 88.41914768 -151.08443604 87.25166704 -149.08374023 86.08398438 C-144.09894449 83.17500434 -139.11217724 80.26951823 -134.12109375 77.37133789 C-123.93896318 71.45383884 -113.79633826 65.47975916 -103.7109375 59.39868164 C-94.1928023 53.66095126 -84.60076829 48.06606424 -74.96191406 42.53393555 C-65.95499777 37.35731475 -57.01396476 32.07474376 -48.08422852 26.76635742 C-37.71749828 20.60684281 -27.32150004 14.49669077 -16.87548828 8.47241211 C-14.85831061 7.28922247 -12.85866866 6.07596454 -10.87060547 4.84448242 C-9.80600098 4.19334473 -8.74139648 3.54220703 -7.64453125 2.87133789 C-6.67700928 2.26813721 -5.7094873 1.66493652 -4.71264648 1.04345703 C-2.0859375 -0.16381836 -2.0859375 -0.16381836 0 0 Z M-7.1171875 29.55493164 C-8.14110596 30.14902832 -9.16502441 30.743125 -10.2199707 31.35522461 C-11.33073975 32.00894043 -12.44150879 32.66265625 -13.5859375 33.33618164 C-14.75648342 34.01910103 -15.92730547 34.7015473 -17.09838867 35.38354492 C-27.4877915 41.44453635 -37.82846715 47.58905193 -48.16796875 53.73461914 C-55.89778739 58.32478318 -63.65565079 62.86654144 -71.4151001 67.40637207 C-80.22058711 72.55915381 -89.0035061 77.74803645 -97.7734375 82.96118164 C-107.80425233 88.92096789 -117.88617955 94.78621138 -128.00048828 100.60302734 C-136.07549986 105.24749059 -144.11745599 109.94439766 -152.13671875 114.68432617 C-170.87170545 125.75542678 -189.66674474 136.72371461 -208.5234375 147.58618164 C-215.82703818 151.79503627 -223.12847356 156.0069163 -230.3984375 160.27368164 C-231.00034912 160.62591797 -231.60226074 160.9781543 -232.22241211 161.34106445 C-233.4054829 162.03776708 -234.58030997 162.74868188 -235.74593353 163.47419739 C-238.0859375 164.83618164 -238.0859375 164.83618164 -241.26061249 166.35301208 C-248.04551684 169.7379428 -248.04551684 169.7379428 -252.34625244 175.73954773 C-252.87945575 179.29069452 -253.00268809 182.65900303 -252.99023438 186.25024414 C-253.03084099 187.5950689 -253.07671393 188.93974328 -253.12741089 190.28422546 C-253.24599154 193.91972819 -253.28107152 197.55131971 -253.29321098 201.18857193 C-253.30472172 203.46795744 -253.33450939 205.74636244 -253.37068176 208.02548218 C-253.49680313 216.00026589 -253.55492657 223.97224591 -253.54980469 231.94799805 C-253.54683822 239.34694142 -253.69235928 246.73276357 -253.90838957 254.12826157 C-254.08797343 260.50627326 -254.16134633 266.88003045 -254.15504122 273.26054764 C-254.15304352 277.06079843 -254.19150587 280.84911229 -254.33799744 284.64678955 C-255.25827215 300.75608307 -255.25827215 300.75608307 -248.50140381 314.61508179 C-242.295056 319.76333067 -234.99941003 323.05431417 -227.64085388 326.22677612 C-221.76017882 328.88911466 -216.31422259 332.22094025 -210.7734375 335.52368164 C-208.64000044 336.75368416 -206.50483016 337.9806902 -204.3671875 339.20336914 C-197.2082747 343.32752542 -190.10462988 347.5444277 -183.02416992 351.80175781 C-182.18217041 352.30425049 -181.3401709 352.80674316 -180.47265625 353.32446289 C-179.74264404 353.76314697 -179.01263184 354.20183105 -178.26049805 354.65380859 C-175.6804619 356.11170364 -175.6804619 356.11170364 -171.0859375 357.83618164 C-171.0859375 311.30618164 -171.0859375 264.77618164 -171.0859375 216.83618164 C-169.4359375 216.17618164 -167.7859375 215.51618164 -166.0859375 214.83618164 C-164.53098408 214.0042673 -162.99364611 213.13883521 -161.47265625 212.24633789 C-160.57160156 211.71951416 -159.67054688 211.19269043 -158.7421875 210.64990234 C-157.7625 210.07199951 -156.7828125 209.49409668 -155.7734375 208.89868164 C-154.72800781 208.28532959 -153.68257813 207.67197754 -152.60546875 207.04003906 C-140.4810352 199.91534461 -128.39421984 192.72670677 -116.30897522 185.53581238 C-111.51410772 182.68349883 -106.71512169 179.83821497 -101.9140625 176.99633789 C-99.22113071 175.40166281 -96.52843471 173.80659036 -93.8359375 172.21118164 C-93.17154663 171.81753418 -92.50715576 171.42388672 -91.82263184 171.01831055 C-83.03383911 165.80799908 -74.28589533 160.53578436 -65.5682373 155.20742798 C-54.51292819 148.45064835 -43.36035007 141.90041468 -32.07080078 135.54296875 C-26.67528993 132.49575319 -21.33409001 129.40616048 -16.09375 126.09790039 C-15.17787109 125.52402588 -14.26199219 124.95015137 -13.31835938 124.35888672 C-11.63385965 123.29440276 -9.95973222 122.21324203 -8.29882812 121.11230469 C-7.56083984 120.64735596 -6.82285156 120.18240723 -6.0625 119.70336914 C-5.43424316 119.29199707 -4.80598633 118.880625 -4.15869141 118.45678711 C-0.22639902 117.27941523 3.05686933 119.37976458 6.50927734 121.21801758 C7.37246582 121.74685547 8.2356543 122.27569336 9.125 122.82055664 C10.10992432 123.41876221 11.09484863 124.01696777 12.10961914 124.63330078 C13.15883545 125.27775146 14.20805176 125.92220215 15.2890625 126.58618164 C17.54482707 127.95592368 19.80125946 129.32450314 22.05859375 130.69165039 C22.63151657 131.03936996 23.20443939 131.38708954 23.79472351 131.74534607 C29.48469885 135.19429774 35.22387817 138.55571278 40.9765625 141.89868164 C42.45358643 142.75768066 42.45358643 142.75768066 43.96044922 143.6340332 C45.95009651 144.79057054 47.94000471 145.94665914 49.93017578 147.10229492 C54.92872527 150.00686852 59.92111011 152.92200077 64.9140625 155.83618164 C71.0176825 159.39795989 77.12228088 162.95802264 83.23046875 166.51196289 C92.11126935 171.68132229 100.98800219 176.85163693 109.78369141 182.16479492 C126.34126393 192.13702026 143.10006382 201.7846406 159.79882812 211.51757812 C172.51792789 218.93316919 185.21607662 226.38451555 197.9140625 233.83618164 C198.7395459 234.32038574 199.5650293 234.80458984 200.41552734 235.3034668 C202.45711365 236.50117902 204.49827774 237.69960423 206.5390625 238.89868164 C207.16071289 239.26388916 207.78236328 239.62909668 208.42285156 240.00537109 C212.25800107 242.2623269 216.08573374 244.53151907 219.909729 246.80732727 C222.36050246 248.265809 224.81209324 249.72291478 227.26361084 251.18014526 C229.06097003 252.24953011 230.85691803 253.32125689 232.65283203 254.39306641 C233.76384277 255.05363037 234.87485352 255.71419434 236.01953125 256.39477539 C237.01106201 256.98572998 238.00259277 257.57668457 239.02416992 258.18554688 C244.1707086 261.47420521 244.1707086 261.47420521 249.9140625 262.83618164 C249.9140625 233.13618164 249.9140625 203.43618164 249.9140625 172.83618164 C241.3340625 167.88618164 232.7540625 162.93618164 223.9140625 157.83618164 C219.40661933 155.18034376 214.90437335 152.52021718 210.4140625 149.83618164 C201.61904031 144.60129402 192.78932056 139.43382079 183.9140625 134.33618164 C175.03877463 129.23852537 166.21021357 124.06919864 157.4140625 118.83618164 C147.47902135 112.92684751 137.49755145 107.10539054 127.47705078 101.34228516 C117.24554192 95.45773382 107.05023198 89.51231684 96.85986328 83.55688477 C93.94011931 81.85140196 91.0191309 80.14807287 88.09765625 78.44555664 C68.07984026 66.77977708 48.07513222 55.0910696 28.13540649 43.29217529 C26.48475674 42.31551037 24.83357666 41.33974191 23.18237305 40.36401367 C14.55589658 35.25187723 14.55589658 35.25187723 10.3515625 32.59448242 C9.76161499 32.22364029 9.17166748 31.85279816 8.56384277 31.47071838 C6.9095047 30.4275779 5.26026327 29.37636735 3.61132812 28.32470703 C-0.90015788 25.83497765 -2.94167472 27.11647993 -7.1171875 29.55493164 Z " fill="#04A66B" transform="translate(628.0859375,276.163818359375)"/>
<path d="M0 0 C5.30195108 2.52041357 9.20846857 5.97409597 12.953125 10.4296875 C17.9863351 16.2390251 23.48380993 21.59089509 28.9375 27 C30.01390654 28.07137887 31.09008014 29.14299182 32.16601562 30.21484375 C34.77466745 32.81259638 37.38644471 35.40717962 40 38 C38.59490901 41.18259851 36.93078658 43.31348466 34.46826172 45.75878906 C33.74766571 46.47923401 33.0270697 47.19967896 32.28463745 47.94195557 C31.50750397 48.70876648 30.73037048 49.47557739 29.9296875 50.265625 C29.13345978 51.05902283 28.33723206 51.85242065 27.51687622 52.66986084 C24.97424052 55.20130703 22.42473652 57.72570803 19.875 60.25 C18.14928247 61.96568617 16.42401645 63.68182662 14.69921875 65.3984375 C10.47136968 69.60424248 6.23786131 73.80428507 2 78 C-1.18259851 76.59490901 -3.31348466 74.93078658 -5.75878906 72.46826172 C-6.47923401 71.74766571 -7.19967896 71.0270697 -7.94195557 70.28463745 C-8.70876648 69.50750397 -9.47557739 68.73037048 -10.265625 67.9296875 C-11.05902283 67.13345978 -11.85242065 66.33723206 -12.66986084 65.51687622 C-15.20130703 62.97424052 -17.72570803 60.42473652 -20.25 57.875 C-21.96568617 56.14928247 -23.68182662 54.42401645 -25.3984375 52.69921875 C-29.60424248 48.47136968 -33.80428507 44.23786131 -38 40 C-36.59490901 36.81740149 -34.93078658 34.68651534 -32.46826172 32.24121094 C-31.74766571 31.52076599 -31.0270697 30.80032104 -30.28463745 30.05804443 C-29.11893723 28.90782806 -29.11893723 28.90782806 -27.9296875 27.734375 C-27.13345978 26.94097717 -26.33723206 26.14757935 -25.51687622 25.33013916 C-22.97424052 22.79869297 -20.42473652 20.27429197 -17.875 17.75 C-16.14928247 16.03431383 -14.42401645 14.31817338 -12.69921875 12.6015625 C-8.47136968 8.39575752 -4.23786131 4.19571493 0 0 Z " fill="#03A66B" transform="translate(626,588)"/>
<path d="M0 0 C0.66 0.33 1.32 0.66 2 1 C1.67 55.78 1.34 110.56 1 167 C0.01 166.67 -0.98 166.34 -2 166 C-2 111.55 -2 57.1 -2 1 C-1.34 0.67 -0.68 0.34 0 0 Z " fill="#23A877" transform="translate(356,434)"/>
<path d="M0 0 C0.66 0.33 1.32 0.66 2 1 C-1.9050849 4.55007718 -4.97734643 5.81819916 -10 7 C-7.20283196 3.70921407 -3.80471422 1.93694542 0 0 Z " fill="#D4F0E5" transform="translate(794,879)"/>
<path d="M0 0 C-1.0975223 2.99324263 -1.67682892 3.84610901 -4.625 5.25 C-5.40875 5.4975 -6.1925 5.745 -7 6 C-7.66 5.34 -8.32 4.68 -9 4 C-2.25 0 -2.25 0 0 0 Z " fill="#17B076" transform="translate(870,809)"/>
<path d="M0 0 C1.65 1.32 3.3 2.64 5 4 C4.34 5.32 3.68 6.64 3 8 C2.71125 7.401875 2.4225 6.80375 2.125 6.1875 C0.95257974 3.80672208 0.95257974 3.80672208 -1 1 C-0.67 0.67 -0.34 0.34 0 0 Z " fill="#0FA36E" transform="translate(661,622)"/>
<path d="M0 0 C1.98 0 3.96 0 6 0 C6 0.99 6 1.98 6 3 C6.66 3 7.32 3 8 3 C8 3.66 8 4.32 8 5 C4.62496331 3.8141763 2.35277269 2.72426311 0 0 Z " fill="#11A267" transform="translate(471,667)"/>
</svg>
